{"scene":0,"asset":{"generator":"ImageToStl.com","version":"2.0"},"scenes":[{"name":"Scene","nodes":[0]}],"nodes":[{"name":"Node0","children":[1,2,3,4,5,6,7,8,9,10,11,12]},{"name":"Node1","mesh":0},{"name":"Node2","mesh":1},{"name":"Node3","mesh":2},{"name":"Node4","mesh":3},{"name":"Node5","mesh":4},{"name":"Node6","mesh":5},{"name":"Node7","mesh":6},{"name":"Node8","mesh":7},{"name":"Node9","mesh":8},{"name":"Node10","mesh":9},{"name":"Node11","mesh":10},{"name":"Node12","mesh":11}],"materials":[{"name":"mat_00000","pbrMetallicRoughness":{"baseColorFactor":[1.0,1.0,1.0,1.0],"metallicFactor":0.0,"roughnessFactor":1.0},"doubleSided":true},{"name":"mat_00001","pbrMetallicRoughness":{"baseColorFactor":[1.0,1.0,1.0,1.0],"metallicFactor":0.0,"roughnessFactor":1.0},"doubleSided":true},{"name":"mat_00002","pbrMetallicRoughness":{"baseColorFactor":[1.0,1.0,1.0,1.0],"metallicFactor":0.0,"roughnessFactor":1.0},"doubleSided":true},{"name":"mat_00003","pbrMetallicRoughness":{"baseColorFactor":[1.0,1.0,1.0,1.0],"metallicFactor":0.0,"roughnessFactor":1.0},"doubleSided":true},{"name":"mat_00004","pbrMetallicRoughness":{"baseColorFactor":[1.0,1.0,1.0,1.0],"metallicFactor":0.0,"roughnessFactor":1.0},"doubleSided":true}],"meshes":[{"name":"Mesh0","primitives":[{"indices":1,"material":1,"attributes":{"POSITION":0}}]},{"name":"Mesh0","primitives":[{"indices":3,"material":2,"attributes":{"POSITION":2}}]},{"name":"Mesh0","primitives":[{"indices":5,"material":3,"attributes":{"POSITION":4}}]},{"name":"Mesh0","primitives":[{"indices":7,"material":3,"attributes":{"POSITION":6}}]},{"name":"Mesh0","primitives":[{"indices":9,"material":3,"attributes":{"POSITION":8}}]},{"name":"Mesh0","primitives":[{"indices":11,"material":1,"attributes":{"POSITION":10}},{"indices":12,"material":3,"attributes":{"POSITION":10}}]},{"name":"Mesh0","primitives":[{"indices":14,"material":4,"attributes":{"POSITION":13}}]},{"name":"Mesh0","primitives":[{"indices":16,"material":1,"attributes":{"POSITION":15}}]},{"name":"Mesh0","primitives":[{"indices":18,"material":3,"attributes":{"POSITION":17}}]},{"name":"Mesh0","primitives":[{"indices":20,"material":3,"attributes":{"POSITION":19}}]},{"name":"Mesh0","primitives":[{"indices":22,"material":3,"attributes":{"POSITION":21}}]},{"name":"Mesh0","primitives":[{"indices":24,"material":3,"attributes":{"POSITION":23}}]}],"accessors":[{"bufferView":0,"componentType":5126,"count":580,"type":"VEC3","min":[-348.0,-241.21806,-270.25555],"max":[348.0,-160.71628,-236.79364]},{"bufferView":1,"componentType":5123,"count":3540,"type":"SCALAR"},{"bufferView":2,"componentType":5126,"count":256,"type":"VEC3","min":[-350.0,-116.533775,-226.64378],"max":[270.0,-16.546223,-126.65623]},{"bufferView":3,"componentType":5123,"count":1524,"type":"SCALAR"},{"bufferView":4,"componentType":5126,"count":454,"type":"VEC3","min":[-346.0,-62.000008,-246.23364],"max":[269.6331,-13.008208,-176.65]},{"bufferView":5,"componentType":5123,"count":2610,"type":"SCALAR"},{"bufferView":6,"componentType":5126,"count":2560,"type":"VEC3","min":[-310.0,-131.10896,-219.80338],"max":[220.0,-120.77602,-212.89566]},{"bufferView":7,"componentType":5123,"count":15240,"type":"SCALAR"},{"bufferView":8,"componentType":5126,"count":522,"type":"VEC3","min":[-46.0,-174.70396,-273.84894],"max":[-37.0,-74.03408,-228.57292]},{"bufferView":9,"componentType":5123,"count":3126,"type":"SCALAR"},{"bufferView":10,"componentType":5126,"count":5122,"type":"VEC3","min":[-390.0,-209.98874,-280.0],"max":[390.0,-60.000008,-5.2762625E-06]},{"bufferView":11,"componentType":5123,"count":18864,"type":"SCALAR"},{"bufferView":12,"componentType":5123,"count":9984,"type":"SCALAR"},{"bufferView":13,"componentType":5126,"count":979,"type":"VEC3","min":[-390.0,-60.000008,-280.0],"max":[390.0,-8.065144E-06,-1.0552525E-05]},{"bufferView":14,"componentType":5123,"count":5826,"type":"SCALAR"},{"bufferView":15,"componentType":5126,"count":288,"type":"VEC3","min":[-390.0,-214.00673,-198.0],"max":[390.0,-199.0351,-25.0]},{"bufferView":16,"componentType":5123,"count":1716,"type":"SCALAR"},{"bufferView":17,"componentType":5126,"count":826,"type":"VEC3","min":[10.5,-132.64764,-249.31642],"max":[230.5,-120.42704,-242.9597]},{"bufferView":18,"componentType":5123,"count":4944,"type":"SCALAR"},{"bufferView":19,"componentType":5126,"count":100,"type":"VEC3","min":[8.033494,-142.4426,-268.23486],"max":[232.9665,-100.335144,-214.56934]},{"bufferView":20,"componentType":5123,"count":540,"type":"SCALAR"},{"bufferView":21,"componentType":5126,"count":826,"type":"VEC3","min":[-317.84702,-133.64534,-249.77707],"max":[-97.84701,-121.424736,-243.42035]},{"bufferView":22,"componentType":5123,"count":4944,"type":"SCALAR"},{"bufferView":23,"componentType":5126,"count":100,"type":"VEC3","min":[-314.42957,-145.60768,-269.52872],"max":[-101.26446,-99.16544,-214.23866]},{"bufferView":24,"componentType":5123,"count":540,"type":"SCALAR"}],"bufferViews":[{"target":34962,"buffer":0,"byteLength":6960,"byteOffset":0},{"target":34963,"buffer":0,"byteLength":7080,"byteOffset":6960},{"target":34962,"buffer":0,"byteLength":3072,"byteOffset":14040},{"target":34963,"buffer":0,"byteLength":3048,"byteOffset":17112},{"target":34962,"buffer":0,"byteLength":5448,"byteOffset":20160},{"target":34963,"buffer":0,"byteLength":5220,"byteOffset":25608},{"target":34962,"buffer":0,"byteLength":30720,"byteOffset":30828},{"target":34963,"buffer":0,"byteLength":30480,"byteOffset":61548},{"target":34962,"buffer":0,"byteLength":6264,"byteOffset":92028},{"target":34963,"buffer":0,"byteLength":6252,"byteOffset":98292},{"target":34962,"buffer":0,"byteLength":61464,"byteOffset":104544},{"target":34963,"buffer":0,"byteLength":37728,"byteOffset":166008},{"target":34963,"buffer":0,"byteLength":19968,"byteOffset":203736},{"target":34962,"buffer":0,"byteLength":11748,"byteOffset":223704},{"target":34963,"buffer":0,"byteLength":11652,"byteOffset":235452},{"target":34962,"buffer":0,"byteLength":3456,"byteOffset":247104},{"target":34963,"buffer":0,"byteLength":3432,"byteOffset":250560},{"target":34962,"buffer":0,"byteLength":9912,"byteOffset":253992},{"target":34963,"buffer":0,"byteLength":9888,"byteOffset":263904},{"target":34962,"buffer":0,"byteLength":1200,"byteOffset":273792},{"target":34963,"buffer":0,"byteLength":1080,"byteOffset":274992},{"target":34962,"buffer":0,"byteLength":9912,"byteOffset":276072},{"target":34963,"buffer":0,"byteLength":9888,"byteOffset":285984},{"target":34962,"buffer":0,"byteLength":1200,"byteOffset":295872},{"target":34963,"buffer":0,"byteLength":1080,"byteOffset":297072}],"buffers":[{"byteLength":298152,"uri":"data:application/octet-stream;base64,"}]}